<?xml version="1.0" standalone="no"?><!DOCTYPE svg PUBLIC "-//W3C//DTD SVG 1.1//EN" "http://www.w3.org/Graphics/SVG/1.1/DTD/svg11.dtd"><svg t="1784017100826" class="icon" viewBox="0 0 1024 1024" version="1.1" xmlns="http://www.w3.org/2000/svg" p-id="6412" xmlns:xlink="http://www.w3.org/1999/xlink" width="512" height="512"><path d="M798.647 767.059l-133.918-86.627c-7.937-5.14-16.02-7.755-24.045-7.755-17.984 0-36.196 14.7-36.196 42.768v38.652H392.366c-126.614 0-229.622-107.581-229.622-239.798 0-47.784 13.597-93.995 39.324-133.676 15.496-23.904 9.521-56.382-13.36-72.565-22.879-16.15-53.996-9.912-69.477 13.963C82.24 379.05 62.68 445.552 62.68 514.299c0 189.857 147.903 344.287 329.686 344.287h212.122v38.924c0 29.189 18.522 42.489 35.733 42.489 8.205 0 16.452-2.773 24.535-8.224l134.562-90.737c13.437-9.063 21.072-22.645 20.938-37.223-0.147-14.577-8.021-27.973-21.609-36.756zM631.646 165.405H419.529V126.486C419.529 97.3 401.003 84 383.791 84c-8.203 0-16.45 2.769-24.535 8.222l-134.56 90.74c-13.439 9.063-21.075 22.643-20.94 37.223 0.15 14.578 8.025 27.97 21.614 36.754l133.918 86.626c7.933 5.14 16.018 7.755 24.041 7.755 17.989 0 36.2-14.702 36.2-42.768V269.895h212.117c126.616 0 229.612 107.581 229.612 239.798 0 47.812-13.6 94.022-39.312 133.672-15.496 23.908-9.493 56.386 13.373 72.569 8.598 6.063 18.37 8.977 28.004 8.977 16.054 0 31.8-8.046 41.486-22.945 36.968-56.998 56.511-123.498 56.511-192.273 0-189.856-147.89-344.288-329.674-344.288z" p-id="6413"></path></svg>