<svg width="24" height="24" viewBox="0 0 24 24" fill="none" xmlns="http://www.w3.org/2000/svg">
  <path d="M12 15.2a3.2 3.2 0 1 0 0-6.4 3.2 3.2 0 0 0 0 6.4Z" stroke="currentColor" stroke-width="2" stroke-linecap="round" stroke-linejoin="round"/>
  <path d="M19.4 15a1.7 1.7 0 0 0 .34 1.88l.05.05a2.06 2.06 0 0 1 0 2.91 2.06 2.06 0 0 1-2.91 0l-.05-.05a1.7 1.7 0 0 0-1.88-.34 1.7 1.7 0 0 0-1.03 1.56V21a2.06 2.06 0 0 1-4.12 0v-.07A1.7 1.7 0 0 0 8.77 19.4a1.7 1.7 0 0 0-1.88.34l-.05.05a2.06 2.06 0 0 1-2.91 0 2.06 2.06 0 0 1 0-2.91l.05-.05A1.7 1.7 0 0 0 4.32 15a1.7 1.7 0 0 0-1.56-1.03H2.7a2.06 2.06 0 0 1 0-4.12h.07a1.7 1.7 0 0 0 1.56-1.03 1.7 1.7 0 0 0-.34-1.88l-.05-.05a2.06 2.06 0 0 1 0-2.91 2.06 2.06 0 0 1 2.91 0l.05.05a1.7 1.7 0 0 0 1.88.34h.01A1.7 1.7 0 0 0 9.82 2.8V2.7a2.06 2.06 0 0 1 4.12 0v.07a1.7 1.7 0 0 0 1.03 1.56 1.7 1.7 0 0 0 1.88-.34l.05-.05a2.06 2.06 0 0 1 2.91 0 2.06 2.06 0 0 1 0 2.91l-.05.05a1.7 1.7 0 0 0-.34 1.88v.01a1.7 1.7 0 0 0 1.56 1.03h.1a2.06 2.06 0 0 1 0 4.12h-.07A1.7 1.7 0 0 0 19.4 15Z" stroke="currentColor" stroke-width="2" stroke-linecap="round" stroke-linejoin="round"/>
</svg>
